<svg preserveAspectRatio="none" width="100%" height="100%" overflow="visible" style="display: block;" viewBox="0 0 165 143" fill="none" xmlns="http://www.w3.org/2000/svg">
<g id="Vector">
<path d="M0 0.286165C2.70941 0.179186 6.16232 0.266068 8.92232 0.260276L39.9341 0.248428C41.914 0.247726 44.9171 0.15865 46.8087 0.339084L80.7074 42.8616L93.5178 58.8965C95.3217 61.1223 97.107 63.3646 98.8726 65.623C99.7555 66.7448 100.767 67.9526 101.567 69.1247C102.783 70.9847 103.326 74.595 102.198 76.6192C101.392 78.0655 99.5922 80.0786 98.5027 81.4205L91.7623 89.7708L85.2568 97.9597C84.3722 99.0576 83.3287 100.462 82.3897 101.474C80.8928 99.3841 79.2067 97.485 77.5775 95.5068L72.1793 88.8371L57.2556 70.6386L7.66926 9.8579C5.3164 6.99095 2.14151 3.30643 0 0.286165Z" fill="var(--fill-0, white)" fill-opacity="0.12"/>
<path d="M110.562 76.8717C111.641 78.4797 114.158 81.3845 115.426 82.9598C118.772 87.1618 122.149 91.3383 125.555 95.4885L145.983 121.01C150.039 125.982 154.035 131.007 157.972 136.08C158.608 136.907 159.306 137.686 159.931 138.52C160.425 139.095 162.904 142.029 163.204 142.519C163.366 142.652 163.354 142.643 163.438 142.839C163.13 143.086 162.324 142.958 161.919 142.956C155.842 142.94 149.752 142.9 143.676 142.908L131.137 142.899C126.174 142.935 121.211 142.934 116.248 142.897C115.49 142.093 114.648 141.005 113.937 140.131C112.706 138.627 111.483 137.115 110.269 135.597L100.068 122.771C96.5661 118.35 92.9667 113.811 89.523 109.336C88.3399 107.799 88.4735 104.293 89.4379 102.682C90.0724 101.625 91.1951 100.378 92.0397 99.392C93.1419 98.1081 94.2289 96.811 95.3014 95.5016L105.183 83.4118C106.986 81.209 108.699 79.0413 110.562 76.8717Z" fill="var(--fill-0, white)" fill-opacity="0.12"/>
<path d="M159.931 138.52C160.425 139.095 162.904 142.029 163.204 142.519C162.725 142.38 161.933 141.279 161.493 140.859C160.746 140.145 160.104 139.609 159.931 138.52Z" fill="var(--fill-0, white)" fill-opacity="0.12"/>
<path d="M54.5525 76.9442C54.9013 77.1904 56.4484 79.244 56.8238 79.7056L62.3685 86.4807L71.0978 96.9961C72.3676 98.5442 73.6854 100.093 74.8854 101.697C75.3847 102.364 75.7508 103.063 75.8178 103.897C75.9305 105.301 75.9709 107.211 75.2303 108.473C74.0716 110.445 72.4281 112.289 71.0359 114.059C68.8295 116.865 66.6148 119.542 64.3402 122.271C58.6949 129.1 53.143 136.01 47.6864 143C39.2936 142.893 30.9002 142.855 22.5068 142.888C15.3473 142.897 8.06602 143.008 0.920165 142.875C2.82472 140.814 5.42526 137.296 7.27547 135.009L20.8634 118.232L40.3424 94.394C45.0603 88.6615 49.992 82.7834 54.5525 76.9442Z" fill="var(--fill-0, white)" fill-opacity="0.12"/>
<path d="M120.32 1.56064C120.464 1.35905 120.61 1.15896 120.757 0.960184C121 0.635384 121.278 0.248976 121.686 0.198777C122.581 0.088901 123.628 0.143224 124.534 0.152615C126.34 0.179206 128.146 0.191668 129.95 0.189913L143.507 0.185174C145.865 0.158934 148.224 0.14612 150.582 0.146647C153.405 0.187894 156.229 0.201761 159.052 0.188334C160.958 0.189826 163.131 0.256172 165 0C164.844 0.263807 164.655 0.542533 164.486 0.801163C163.781 1.73133 163.012 2.51073 162.273 3.39921L157.411 9.33488L121.91 52.951L112.495 64.6272C111.392 66.016 109.96 67.5755 108.953 68.9922L95.2605 51.9919L89.2015 44.3386C89.0135 44.1048 88.0167 42.7921 87.8492 42.6765L87.7437 42.3485C87.9257 41.6865 93.6071 34.8555 94.4083 33.8554L112.284 11.5492C114.846 8.35029 117.894 4.79311 120.32 1.56064Z" fill="var(--fill-0, white)" fill-opacity="0.12"/>
</g>
</svg>
